<mxfile host="app.diagrams.net" agent="Mozilla/5.0 (Windows NT 10.0; Win64; x64) AppleWebKit/537.36 (KHTML, like Gecko) Chrome/139.0.0.0 Safari/537.36" version="28.1.2">
  <diagram name="Página-1" id="sWeNbG2P5UElYmFgl0ms">
    <mxGraphModel dx="727" dy="388" grid="1" gridSize="10" guides="1" tooltips="1" connect="1" arrows="1" fold="1" page="1" pageScale="1" pageWidth="827" pageHeight="1169" math="0" shadow="0">
      <root>
        <mxCell id="0" />
        <mxCell id="1" parent="0" />
        <mxCell id="ER67dwj61aU4Cixi_9wv-1" value="&lt;div&gt;&lt;font style=&quot;font-size: 20px;&quot;&gt;Exercício 4&lt;/font&gt;&lt;/div&gt;&lt;div&gt;&lt;font style=&quot;font-size: 20px;&quot;&gt;&lt;br&gt;&lt;/font&gt;&lt;/div&gt;&lt;div&gt;&lt;div&gt;&lt;font style=&quot;font-size: 20px;&quot;&gt;Diagrama de Sequência - Controle de Cursos&lt;/font&gt;&lt;/div&gt;&lt;/div&gt;" style="text;html=1;align=center;verticalAlign=middle;whiteSpace=wrap;rounded=0;strokeWidth=7;" vertex="1" parent="1">
          <mxGeometry x="194" y="60" width="440" height="30" as="geometry" />
        </mxCell>
        <mxCell id="ER67dwj61aU4Cixi_9wv-5" value="Cliente" style="shape=umlActor;verticalLabelPosition=bottom;verticalAlign=top;html=1;outlineConnect=0;" vertex="1" parent="1">
          <mxGeometry x="150" y="150" width="30" height="60" as="geometry" />
        </mxCell>
        <mxCell id="ER67dwj61aU4Cixi_9wv-6" value="Atendente" style="shape=umlActor;verticalLabelPosition=bottom;verticalAlign=top;html=1;outlineConnect=0;" vertex="1" parent="1">
          <mxGeometry x="320" y="150" width="30" height="60" as="geometry" />
        </mxCell>
        <mxCell id="ER67dwj61aU4Cixi_9wv-7" value="&lt;font style=&quot;font-size: 18px;&quot;&gt;Sistema da Empresa&lt;/font&gt;" style="rounded=0;whiteSpace=wrap;html=1;" vertex="1" parent="1">
          <mxGeometry x="448.75" y="170" width="112.5" height="60" as="geometry" />
        </mxCell>
        <mxCell id="ER67dwj61aU4Cixi_9wv-9" value="" style="html=1;points=[[0,0,0,0,5],[0,1,0,0,-5],[1,0,0,0,5],[1,1,0,0,-5]];perimeter=orthogonalPerimeter;outlineConnect=0;targetShapes=umlLifeline;portConstraint=eastwest;newEdgeStyle={&quot;curved&quot;:0,&quot;rounded&quot;:0};" vertex="1" parent="1">
          <mxGeometry x="160" y="240" width="10" height="460" as="geometry" />
        </mxCell>
        <mxCell id="ER67dwj61aU4Cixi_9wv-10" value="" style="html=1;points=[[0,0,0,0,5],[0,1,0,0,-5],[1,0,0,0,5],[1,1,0,0,-5]];perimeter=orthogonalPerimeter;outlineConnect=0;targetShapes=umlLifeline;portConstraint=eastwest;newEdgeStyle={&quot;curved&quot;:0,&quot;rounded&quot;:0};" vertex="1" parent="1">
          <mxGeometry x="330" y="240" width="10" height="460" as="geometry" />
        </mxCell>
        <mxCell id="ER67dwj61aU4Cixi_9wv-12" value="" style="html=1;points=[[0,0,0,0,5],[0,1,0,0,-5],[1,0,0,0,5],[1,1,0,0,-5]];perimeter=orthogonalPerimeter;outlineConnect=0;targetShapes=umlLifeline;portConstraint=eastwest;newEdgeStyle={&quot;curved&quot;:0,&quot;rounded&quot;:0};" vertex="1" parent="1">
          <mxGeometry x="500" y="240" width="10" height="460" as="geometry" />
        </mxCell>
        <mxCell id="ER67dwj61aU4Cixi_9wv-13" value="" style="endArrow=open;endFill=1;endSize=12;html=1;rounded=0;" edge="1" parent="1">
          <mxGeometry width="160" relative="1" as="geometry">
            <mxPoint x="170" y="270" as="sourcePoint" />
            <mxPoint x="330" y="270" as="targetPoint" />
          </mxGeometry>
        </mxCell>
        <mxCell id="ER67dwj61aU4Cixi_9wv-15" value="Questionar cursos" style="edgeLabel;html=1;align=center;verticalAlign=middle;resizable=0;points=[];" vertex="1" connectable="0" parent="ER67dwj61aU4Cixi_9wv-13">
          <mxGeometry x="-0.1" y="-2" relative="1" as="geometry">
            <mxPoint y="-12" as="offset" />
          </mxGeometry>
        </mxCell>
        <mxCell id="ER67dwj61aU4Cixi_9wv-16" value="" style="endArrow=open;endFill=1;endSize=12;html=1;rounded=0;" edge="1" parent="1">
          <mxGeometry width="160" relative="1" as="geometry">
            <mxPoint x="340" y="310" as="sourcePoint" />
            <mxPoint x="500" y="310" as="targetPoint" />
          </mxGeometry>
        </mxCell>
        <mxCell id="ER67dwj61aU4Cixi_9wv-17" value="Verificar cursos" style="edgeLabel;html=1;align=center;verticalAlign=middle;resizable=0;points=[];" vertex="1" connectable="0" parent="ER67dwj61aU4Cixi_9wv-16">
          <mxGeometry x="-0.1" y="-2" relative="1" as="geometry">
            <mxPoint x="2" y="-12" as="offset" />
          </mxGeometry>
        </mxCell>
        <mxCell id="ER67dwj61aU4Cixi_9wv-18" value="Retornar Relação" style="endArrow=open;endSize=12;dashed=1;html=1;rounded=0;entryX=1;entryY=0.279;entryDx=0;entryDy=0;entryPerimeter=0;" edge="1" parent="1">
          <mxGeometry x="0.5152" y="-10" width="160" relative="1" as="geometry">
            <mxPoint x="500" y="350.03" as="sourcePoint" />
            <mxPoint x="170" y="350" as="targetPoint" />
            <Array as="points">
              <mxPoint x="400" y="350.03" />
            </Array>
            <mxPoint as="offset" />
          </mxGeometry>
        </mxCell>
        <mxCell id="ER67dwj61aU4Cixi_9wv-22" value="" style="endArrow=open;endFill=1;endSize=12;html=1;rounded=0;" edge="1" parent="1">
          <mxGeometry width="160" relative="1" as="geometry">
            <mxPoint x="170" y="400" as="sourcePoint" />
            <mxPoint x="330" y="400" as="targetPoint" />
          </mxGeometry>
        </mxCell>
        <mxCell id="ER67dwj61aU4Cixi_9wv-24" value="Interesse de Matrícula" style="edgeLabel;html=1;align=center;verticalAlign=middle;resizable=0;points=[];" vertex="1" connectable="0" parent="ER67dwj61aU4Cixi_9wv-22">
          <mxGeometry x="0.225" y="1" relative="1" as="geometry">
            <mxPoint x="-18" y="-9" as="offset" />
          </mxGeometry>
        </mxCell>
        <mxCell id="ER67dwj61aU4Cixi_9wv-25" value="Apresentar Condições" style="endArrow=open;endSize=12;dashed=1;html=1;rounded=0;entryX=1;entryY=0.279;entryDx=0;entryDy=0;entryPerimeter=0;" edge="1" parent="1">
          <mxGeometry x="0.5152" y="-10" width="160" relative="1" as="geometry">
            <mxPoint x="500" y="450.03" as="sourcePoint" />
            <mxPoint x="170" y="450" as="targetPoint" />
            <Array as="points">
              <mxPoint x="400" y="450.03" />
            </Array>
            <mxPoint as="offset" />
          </mxGeometry>
        </mxCell>
        <mxCell id="ER67dwj61aU4Cixi_9wv-26" value="" style="endArrow=open;endFill=1;endSize=12;html=1;rounded=0;" edge="1" parent="1">
          <mxGeometry width="160" relative="1" as="geometry">
            <mxPoint x="170" y="500" as="sourcePoint" />
            <mxPoint x="330" y="500" as="targetPoint" />
          </mxGeometry>
        </mxCell>
        <mxCell id="ER67dwj61aU4Cixi_9wv-27" value="Matricular" style="edgeLabel;html=1;align=center;verticalAlign=middle;resizable=0;points=[];" vertex="1" connectable="0" parent="ER67dwj61aU4Cixi_9wv-26">
          <mxGeometry x="0.1625" y="2" relative="1" as="geometry">
            <mxPoint x="-13" y="-8" as="offset" />
          </mxGeometry>
        </mxCell>
        <mxCell id="ER67dwj61aU4Cixi_9wv-30" value="" style="endArrow=open;endFill=1;endSize=12;html=1;rounded=0;" edge="1" parent="1">
          <mxGeometry width="160" relative="1" as="geometry">
            <mxPoint x="340" y="540" as="sourcePoint" />
            <mxPoint x="500" y="540" as="targetPoint" />
          </mxGeometry>
        </mxCell>
        <mxCell id="ER67dwj61aU4Cixi_9wv-31" value="Usuário Cadastrado?" style="edgeLabel;html=1;align=center;verticalAlign=middle;resizable=0;points=[];" vertex="1" connectable="0" parent="ER67dwj61aU4Cixi_9wv-30">
          <mxGeometry x="-0.2958" y="3" relative="1" as="geometry">
            <mxPoint x="17" y="-7" as="offset" />
          </mxGeometry>
        </mxCell>
        <mxCell id="ER67dwj61aU4Cixi_9wv-34" value="" style="html=1;points=[[0,0,0,0,5],[0,1,0,0,-5],[1,0,0,0,5],[1,1,0,0,-5]];perimeter=orthogonalPerimeter;outlineConnect=0;targetShapes=umlLifeline;portConstraint=eastwest;newEdgeStyle={&quot;curved&quot;:0,&quot;rounded&quot;:0};" vertex="1" parent="1">
          <mxGeometry x="670" y="240" width="10" height="460" as="geometry" />
        </mxCell>
        <mxCell id="ER67dwj61aU4Cixi_9wv-35" value="&lt;font style=&quot;font-size: 18px;&quot;&gt;Sistema de Matrícula&lt;/font&gt;" style="rounded=0;whiteSpace=wrap;html=1;" vertex="1" parent="1">
          <mxGeometry x="618.75" y="170" width="112.5" height="60" as="geometry" />
        </mxCell>
        <mxCell id="ER67dwj61aU4Cixi_9wv-40" value="" style="html=1;points=[[0,0,0,0,5],[0,1,0,0,-5],[1,0,0,0,5],[1,1,0,0,-5]];perimeter=orthogonalPerimeter;outlineConnect=0;targetShapes=umlLifeline;portConstraint=eastwest;newEdgeStyle={&quot;curved&quot;:0,&quot;rounded&quot;:0};" vertex="1" parent="1">
          <mxGeometry x="340" y="560" width="10" height="50" as="geometry" />
        </mxCell>
        <mxCell id="ER67dwj61aU4Cixi_9wv-41" value="(Sim)" style="html=1;verticalAlign=bottom;endArrow=block;curved=0;rounded=0;entryX=1;entryY=0;entryDx=0;entryDy=5;" edge="1" target="ER67dwj61aU4Cixi_9wv-40" parent="1">
          <mxGeometry relative="1" as="geometry">
            <mxPoint x="440" y="565" as="sourcePoint" />
            <Array as="points">
              <mxPoint x="390" y="565" />
            </Array>
          </mxGeometry>
        </mxCell>
        <mxCell id="ER67dwj61aU4Cixi_9wv-42" value="Matricular" style="html=1;verticalAlign=bottom;endArrow=open;dashed=1;endSize=8;curved=0;rounded=0;exitX=1;exitY=1;exitDx=0;exitDy=-5;" edge="1" parent="1" target="ER67dwj61aU4Cixi_9wv-34">
          <mxGeometry relative="1" as="geometry">
            <mxPoint x="440" y="600" as="targetPoint" />
            <mxPoint x="350" y="600" as="sourcePoint" />
          </mxGeometry>
        </mxCell>
        <mxCell id="ER67dwj61aU4Cixi_9wv-47" value="" style="html=1;points=[[0,0,0,0,5],[0,1,0,0,-5],[1,0,0,0,5],[1,1,0,0,-5]];perimeter=orthogonalPerimeter;outlineConnect=0;targetShapes=umlLifeline;portConstraint=eastwest;newEdgeStyle={&quot;curved&quot;:0,&quot;rounded&quot;:0};" vertex="1" parent="1">
          <mxGeometry x="340" y="630" width="10" height="50" as="geometry" />
        </mxCell>
        <mxCell id="ER67dwj61aU4Cixi_9wv-48" value="(Não)" style="html=1;verticalAlign=bottom;endArrow=block;curved=0;rounded=0;entryX=1;entryY=0;entryDx=0;entryDy=5;" edge="1" parent="1" target="ER67dwj61aU4Cixi_9wv-47">
          <mxGeometry relative="1" as="geometry">
            <mxPoint x="440" y="635" as="sourcePoint" />
            <Array as="points">
              <mxPoint x="390" y="635" />
            </Array>
          </mxGeometry>
        </mxCell>
        <mxCell id="ER67dwj61aU4Cixi_9wv-49" value="Fazer Cadastro e Matricular" style="html=1;verticalAlign=bottom;endArrow=open;dashed=1;endSize=8;curved=0;rounded=0;exitX=1;exitY=1;exitDx=0;exitDy=-5;" edge="1" parent="1" target="ER67dwj61aU4Cixi_9wv-34">
          <mxGeometry relative="1" as="geometry">
            <mxPoint x="440" y="670" as="targetPoint" />
            <mxPoint x="350" y="669.17" as="sourcePoint" />
          </mxGeometry>
        </mxCell>
      </root>
    </mxGraphModel>
  </diagram>
</mxfile>
